<?xml version="1.0" encoding="UTF-8" standalone="no"?>
<!DOCTYPE svg PUBLIC "-//W3C//DTD SVG 1.1//EN" "http://www.w3.org/Graphics/SVG/1.1/DTD/svg11.dtd">
<svg width="100%" height="100%" viewBox="0 0 512 512" version="1.1" xmlns="http://www.w3.org/2000/svg" xmlns:xlink="http://www.w3.org/1999/xlink" xml:space="preserve" xmlns:serif="http://www.serif.com/" style="fill-rule:evenodd;clip-rule:evenodd;stroke-linecap:round;stroke-linejoin:round;stroke-miterlimit:1.5;">
    <g transform="matrix(-0.42079,0,0,0.42079,533.964,148.273)">
        <path d="M710.883,273L542.883,441C527.883,456 501.883,445.5 501.883,424L501.883,328L152,328C138.7,328 128,317.3 128,304L128,208C128,194.7 138.7,184 152,184L501.883,184L501.883,88C501.883,66.6 527.783,56 542.883,71L710.883,239C720.183,248.4 720.183,263.6 710.883,273Z"/>
    </g>
    <g transform="matrix(1,0,0,1,10,15)">
        <path d="M212,436L212,396C212,389.4 206.6,384 200,384L96,384C78.3,384 64,369.7 64,352L64,130C64,112.3 78.3,98 96,98L200,98C206.6,98 212,92.6 212,86L212,46C212,39.4 206.6,34 200,34L96,34C43,34 0,77 0,130L0,352C0,405 43,448 96,448L200,448C206.6,448 212,442.6 212,436Z"/>
    </g>
    <g transform="matrix(1.06158,0,0,1.06158,-132.938,-11.7926)">
        <path d="M292.472,145.411C292.472,140.137 288.19,135.855 282.916,135.855L243.957,135.855C238.683,135.855 234.401,140.137 234.401,145.411L234.401,183.465C234.401,188.739 238.683,193.022 243.957,193.022L282.916,193.022C288.19,193.022 292.472,188.739 292.472,183.465L292.472,145.411Z" style="fill:none;stroke:black;stroke-width:5.18px;"/>
    </g>
    <g transform="matrix(1.06158,0,0,1.06158,-132.938,81.4362)">
        <path d="M292.472,145.411C292.472,140.137 288.19,135.855 282.916,135.855L243.957,135.855C238.683,135.855 234.401,140.137 234.401,145.411L234.401,183.465C234.401,188.739 238.683,193.022 243.957,193.022L282.916,193.022C288.19,193.022 292.472,188.739 292.472,183.465L292.472,145.411Z"/>
    </g>
    <g transform="matrix(1.06158,0,0,1.06158,-132.938,175.195)">
        <path d="M292.472,145.411C292.472,140.137 288.19,135.855 282.916,135.855L243.957,135.855C238.683,135.855 234.401,140.137 234.401,145.411L234.401,183.465C234.401,188.739 238.683,193.022 243.957,193.022L282.916,193.022C288.19,193.022 292.472,188.739 292.472,183.465L292.472,145.411Z" style="fill:none;stroke:black;stroke-width:5.18px;"/>
    </g>
</svg>
